<?xml version="1.0" encoding="iso-8859-1"?>
<!-- Generator: Adobe Illustrator 19.0.0, SVG Export Plug-In . SVG Version: 6.00 Build 0)  -->
<svg version="1.1" id="Layer_1" xmlns="http://www.w3.org/2000/svg" xmlnsXlink="http://www.w3.org/1999/xlink" x="0px" y="0px"
	 viewBox="0 0 512 512" xmlSpace="preserve">
<g>
	<g>
		<g>
			<path d="M244.459,221.397c2.859,0,5.547-1.088,7.552-3.115c4.16-4.16,4.16-10.923,0-15.104l-7.552-7.552l-15.104,15.104
				l7.552,7.531C238.933,220.288,241.6,221.397,244.459,221.397z"/>
			<path d="M510.592,238.507c-2.069-15.979-6.635-30.464-13.355-43.605c-0.064-0.128-0.149-0.235-0.213-0.363
				c-15.211-29.483-39.893-52.992-64.085-76.032c-6.699-6.379-13.461-12.821-20.032-19.392
				c-6.635-6.613-13.077-13.397-19.499-20.139c-24.363-25.579-49.451-51.477-81.344-66.347c-0.427-0.149-0.725-0.512-1.173-0.597
				l-0.533-0.107c-11.584-5.205-24.107-8.896-37.824-10.581C267.52,0.555,262.144,0,256,0C114.837,0,0,114.837,0,256
				s114.837,256,256,256s256-114.837,256-256C512,249.493,511.467,243.733,510.592,238.507z M256,490.667
				c-129.387,0-234.667-105.28-234.667-234.667c0-126.485,100.672-229.611,226.048-234.197c1.941-0.811,4.075-1.216,6.272-0.725
				l1.387,0.299l2.795,0.619l25.131,5.632l2.688,0.597c0.597,0.448,0.896,1.173,1.429,1.664c0.341,0.277,0.811,0.32,1.131,0.619
				c1.323,1.344,2.283,2.987,3.307,4.544c0.32,0.512,0.747,0.896,1.045,1.451c4.501,7.851,6.357,18.624,8.917,34.389
				c4.629,28.523,10.389,64.021,42.987,96.619c32.597,32.597,68.096,38.357,96.619,42.987c9.387,1.536,17.237,2.88,23.872,4.757
				c3.264,0.917,6.165,2.027,8.789,3.307c0.341,0.171,0.64,0.363,0.981,0.533c2.304,1.216,4.352,2.709,6.144,4.395
				c0.277,0.256,0.533,0.533,0.789,0.789c1.749,1.813,3.243,3.989,4.459,6.464c0.128,0.277,0.277,0.512,0.405,0.789
				c2.688,5.909,4.16,13.589,4.16,24.427C490.667,385.387,385.387,490.667,256,490.667z"/>
			<path d="M437.675,231.595c-29.888-4.864-70.827-11.499-108.288-48.96c-37.461-37.461-44.096-78.4-48.96-108.288
				c-2.027-12.523-3.584-22.123-5.952-26.731l-21.333-4.779C136.832,44.373,42.667,139.328,42.667,256
				c0,117.632,95.701,213.333,213.333,213.333S469.333,373.632,469.333,256c0-3.989-0.427-7.915-0.704-11.861
				C466.923,236.437,460.715,235.328,437.675,231.595z M161.493,173.035l-7.552-7.552l-22.635,22.635
				c-2.091,2.091-4.821,3.115-7.552,3.115c-2.731,0-5.461-1.045-7.552-3.115c-4.16-4.16-4.16-10.923,0-15.083l60.331-60.331
				c4.16-4.16,10.923-4.16,15.083,0l30.165,30.165c4.16,4.16,4.16,10.923,0,15.083c-4.16,4.16-10.923,4.16-15.083,0l-22.635-22.635
				L168.981,150.4l7.552,7.552c4.16,4.16,4.16,10.923,0,15.083c-2.091,2.091-4.821,3.115-7.552,3.115
				S163.584,175.104,161.493,173.035z M214.293,281.749c-5.888,0-10.667-4.779-10.667-10.667v-34.581l-11.968,11.968
				c-4.16,4.16-10.923,4.16-15.083,0c-4.16-4.16-4.16-10.923,0-15.083l29.952-29.952c0.149-0.149,0.277-0.277,0.427-0.427
				l29.973-29.973c4.16-4.16,10.923-4.16,15.083,0l15.083,15.083c12.48,12.48,12.48,32.789,0,45.269
				c-6.037,6.037-14.08,9.365-22.635,9.365c-7.168,0-13.952-2.325-19.52-6.635v34.965h0.021
				C224.96,276.971,220.181,281.749,214.293,281.749z M282.197,323.883c4.16,4.16,4.16,10.923,0,15.083
				c-2.091,2.091-4.821,3.115-7.552,3.115s-5.461-1.045-7.552-3.115l-30.165-30.187c-4.16-4.16-4.16-10.923,0-15.083l60.331-60.331
				c4.16-4.16,10.923-4.16,15.083,0l30.165,30.165c4.16,4.16,4.16,10.923,0,15.083c-4.16,4.16-10.923,4.16-15.083,0L304.811,256
				l-15.083,15.083l7.552,7.552c4.16,4.16,4.16,10.923,0,15.083c-2.091,2.091-4.821,3.115-7.552,3.115
				c-2.731,0-5.461-1.045-7.552-3.115l-7.552-7.552l-15.083,15.083L282.197,323.883z M402.859,338.965
				c-4.16,4.16-10.923,4.16-15.083,0l-22.635-22.635l-15.083,15.083l7.552,7.552c4.16,4.16,4.16,10.923,0,15.083
				c-2.091,2.091-4.821,3.115-7.552,3.115s-5.461-1.045-7.552-3.115l-7.552-7.552l-15.083,15.083l22.635,22.635
				c4.16,4.16,4.16,10.923,0,15.083c-2.091,2.091-4.821,3.115-7.552,3.115c-2.731,0-5.461-1.045-7.552-3.115l-30.165-30.165
				c-4.16-4.16-4.16-10.923,0-15.083l60.331-60.352c2.005-2.005,4.715-3.115,7.552-3.115c2.837,0,5.547,1.131,7.552,3.115
				l30.165,30.187C407.019,328.043,407.019,334.805,402.859,338.965z"/>
		</g>
	</g>
</g>
<g>
</g>
<g>
</g>
<g>
</g>
<g>
</g>
<g>
</g>
<g>
</g>
<g>
</g>
<g>
</g>
<g>
</g>
<g>
</g>
<g>
</g>
<g>
</g>
<g>
</g>
<g>
</g>
<g>
</g>
</svg>
